<svg xmlns="http://www.w3.org/2000/svg" xmlns:xlink="http://www.w3.org/1999/xlink" width="233" height="32" viewBox="0 0 233 32">
    <defs>
        <path id="a" d="M200.657 14.704c2.95 0 4.088 1.807 4.246 3.382a.17.17 0 0 1-.17.187h-8.103a.17.17 0 0 1-.17-.194c.22-1.537 1.58-3.375 4.197-3.375zm4.441 10.007a.338.338 0 0 0-.276.141c-.73 1.03-1.92 1.666-3.697 1.666-2.446 0-4.57-1.61-4.8-3.892a.17.17 0 0 1 .17-.188h14.559c.042-.127.127-1.105.127-1.997 0-6.8-4.048-10.837-10.61-10.837-5.496 0-10.566 4.335-10.566 11.134 0 7.097 5.198 11.262 11.035 11.262 5.277 0 8.62-2.956 9.703-6.528.007-.023.042-.155.083-.35a.34.34 0 0 0-.333-.41h-5.395zm12.874-4.081l-6.904-9.854a.34.34 0 0 1 .28-.535h6.788c.115 0 .223.058.286.155l3.547 5.405a.17.17 0 0 0 .286-.001l3.465-5.402a.34.34 0 0 1 .286-.157h6.399a.34.34 0 0 1 .278.537l-6.81 9.595a.339.339 0 0 0-.001.39c2.23 3.179 4.778 6.85 7.064 10.063a.34.34 0 0 1-.278.536h-6.74a.341.341 0 0 1-.284-.153l-3.679-5.582a.17.17 0 0 0-.283-.002c-1.102 1.64-2.541 3.924-3.634 5.584a.34.34 0 0 1-.285.153h-6.282a.34.34 0 0 1-.28-.532l6.782-9.812a.34.34 0 0 0-.001-.388zm-36.575 10.392V.935a.34.34 0 0 1 .342-.34h5.794a.34.34 0 0 1 .341.34v30.087a.34.34 0 0 1-.34.34h-5.795a.34.34 0 0 1-.342-.34zm-9.544 0V.935a.34.34 0 0 1 .341-.34h5.795a.34.34 0 0 1 .34.34v30.087a.34.34 0 0 1-.34.34h-5.795a.34.34 0 0 1-.34-.34zm-14.331-4.632c2.599 0 4.815-2.04 4.815-5.61 0-3.654-2.173-5.566-4.815-5.566-2.77 0-4.858 1.912-4.858 5.567 0 3.484 2.174 5.61 4.858 5.61zm4.858 2.253c-.938 2.04-3.068 3.314-5.71 3.314-6.221 0-10.524-4.717-10.524-11.219 0-6.29 4.048-11.134 10.31-11.134 3.793 0 5.455 2.082 5.88 3.06v-2.082a.34.34 0 0 1 .342-.34h5.581a.34.34 0 0 1 .341.34v20.44a.34.34 0 0 1-.34.34h-5.578a.34.34 0 0 1-.34-.344c.011-.768.038-2.542.038-2.375zm-30.054-18.168l3.881 11.774c.052.159.28.154.326-.008l3.315-11.751a.34.34 0 0 1 .328-.249h5.628a.34.34 0 0 1 .326.441l-6.35 20.44a.34.34 0 0 1-.326.24h-5.938a.34.34 0 0 1-.323-.231l-4.36-12.927c-.053-.154-.273-.154-.324.001l-4.28 12.924a.34.34 0 0 1-.322.233h-6.066a.341.341 0 0 1-.325-.238l-6.433-20.44a.34.34 0 0 1 .325-.443h6.01a.34.34 0 0 1 .328.248l3.316 11.715c.046.16.273.166.326.007l3.923-11.737a.341.341 0 0 1 .323-.233h6.367c.148 0 .279.095.325.234zM109.325 16.2a.34.34 0 0 1-.399.335 9.358 9.358 0 0 0-1.647-.13c-2.599 0-4.942 1.53-4.942 5.736v8.882a.34.34 0 0 1-.34.34H96.2a.34.34 0 0 1-.34-.34v-20.44a.34.34 0 0 1 .34-.34h5.582a.34.34 0 0 1 .34.34v2.507c1.109-2.38 3.793-3.06 5.497-3.06.518 0 1.035.056 1.44.145a.339.339 0 0 1 .265.332v5.693zM86.189 31.022v-20.44a.34.34 0 0 1 .34-.34h5.796a.34.34 0 0 1 .34.34v20.44a.34.34 0 0 1-.34.34h-5.796a.34.34 0 0 1-.34-.34zM89.384 0c2.13 0 3.835 1.7 3.835 3.782s-1.704 3.782-3.835 3.782c-2.045 0-3.75-1.7-3.75-3.782S87.34 0 89.384 0zM65.552 19.123H72.4a.17.17 0 0 0 .16-.225l-3.384-9.729a.17.17 0 0 0-.321-.001l-3.464 9.728a.17.17 0 0 0 .16.227zm8.977 6.12H63.336a.34.34 0 0 0-.321.226l-2.013 5.667a.34.34 0 0 1-.321.226h-6.34a.34.34 0 0 1-.319-.46l11.12-29.45a.34.34 0 0 1 .319-.22h7.325a.34.34 0 0 1 .32.222L84.1 30.904a.34.34 0 0 1-.32.458h-6.596a.341.341 0 0 1-.322-.226l-2.012-5.667a.34.34 0 0 0-.321-.226z"/>
    </defs>
    <g fill="#FFF" fill-rule="evenodd">
        <use xlink:href="#a"/>
        <path d="M46.152 12.562c1.7 1.675 2.24 4.11 1.41 6.359l-3.13 8.501c-.821 2.233-2.693 3.96-5.007 4.41a6.72 6.72 0 0 1-1.284.125c-1.927 0-3.748-.846-5.026-2.378L14.353 7.096a.412.412 0 0 0-.705.123L7.541 23.734c-.126.34.21.671.543.535l7.492-3.06c1.767-.721 3.787.205 4.394 2.062.554 1.697-.377 3.53-2.015 4.199l-9.787 3.997c-1.812.74-3.894.609-5.525-.48A5.948 5.948 0 0 1 .37 23.973L7.584 4.47C8.439 2.157 10.386.525 12.792.103c2.406-.42 4.782.454 6.357 2.341l10.77 12.907 9.907-4.047c2.202-.899 4.625-.417 6.326 1.258zm-5.714 6.482c.126-.341-.21-.671-.544-.535l-5.473 2.235 3.283 3.935a.413.413 0 0 0 .706-.125l2.028-5.51z"/>
    </g>
</svg>